<svg version="1.1" x="0px" y="0px" width="64px" height="64px" viewBox="0 0 640 640" preserveAspectRatio="xMidYMid meet">
  <g id="layer101">
    <path fill="#3a4249" d="M40 609 c22 -30 22 -30 37 -10 14 20 23 21 238 21 209 0 225 -1 234 -19 6 -10 9 -20 8 -22 -1 -2 4 3 11 11 46 52 57 50 -258 50 l-291 0 21 -31z"/>
    <path fill="#3a4249" d="M110 386 c0 -113 4 -207 11 -223 14 -38 67 -92 106 -109 18 -8 58 -14 90 -14 96 0 167 55 193 149 11 39 14 310 4 360 l-7 31 -198 0 -199 0 0 -194z m290 -6 c0 -18 -7 -20 -80 -20 -73 0 -80 2 -80 20 0 18 7 20 80 20 73 0 80 -2 80 -20z m20 -80 c0 -19 -7 -20 -100 -20 -93 0 -100 1 -100 20 0 19 7 20 100 20 93 0 100 -1 100 -20z m-40 -80 c0 -18 -7 -20 -60 -20 -53 0 -60 2 -60 20 0 18 7 20 60 20 53 0 60 -2 60 -20z"/>
  </g>
</svg>
