<svg width="50" height="50" version="1.1"
  xmlns="http://www.w3.org/2000/svg" viewBox="0 0 32 32">
  <path transform="translate(0, 0)" d="M9.091,9.465C10.177,9.462,11.056,8.582,11.063,7.495C11.057,6.407,10.177,5.525,9.091,5.523C8.001,5.525,7.12,6.407,7.12,7.495C7.121,8.582,8.001,9.462,9.091,9.465C9.091,9.465,9.091,9.465,9.091,9.465C9.091,9.465,9.091,9.465,9.091,9.465M25.339,15.922C25.06,15.922,24.778,15.846,24.527,15.681C24.527,15.681,21.116,13.463,21.116,13.463C21.116,13.463,16.552,15.764,16.552,15.764C16.012,16.037,15.361,15.955,14.904,15.56C14.904,15.56,10.598,11.83,10.598,11.83C9.975,11.29,9.908,10.349,10.447,9.725C10.988,9.102,11.93,9.036,12.552,9.574C12.552,9.574,16.102,12.65,16.102,12.65C16.102,12.65,20.54,10.412,20.54,10.412C21.015,10.174,21.581,10.205,22.026,10.494C22.026,10.494,26.155,13.182,26.155,13.182C26.846,13.631,27.041,14.557,26.592,15.245C26.304,15.684,25.826,15.922,25.339,15.922C25.339,15.922,25.339,15.922,25.339,15.922C25.339,15.922,25.339,15.922,25.339,15.922M27.093,19.504C27.093,19.504,13.472,19.504,13.472,19.504C13.472,19.504,5.066,11.685,5.066,11.685C5.066,11.685,6.894,9.718,6.894,9.718C6.894,9.718,14.528,16.819,14.528,16.819C14.528,16.819,27.093,16.819,27.093,16.819C27.093,16.819,27.093,19.504,27.093,19.504C27.093,19.504,27.093,19.504,27.093,19.504M27.1,27.486C27.1,27.486,24.65,27.486,24.65,27.486C24.65,27.486,24.65,23.104,24.65,23.104C24.65,23.104,7.765,23.104,7.765,23.104C7.765,23.104,7.765,27.486,7.765,27.486C7.765,27.486,5.315,27.486,5.315,27.486C5.315,27.486,5.315,20.654,5.315,20.654C5.315,20.654,27.1,20.654,27.1,20.654C27.1,20.654,27.1,27.486,27.1,27.486C27.1,27.486,27.1,27.486,27.1,27.486M1.58,29.038C1.58,29.038,0,29.038,0,29.038C0,29.038,0,25.086,0,25.086C0,25.086,1.58,25.086,1.58,25.086C1.58,25.086,1.58,29.038,1.58,29.038C1.58,29.038,1.58,29.038,1.58,29.038M1.58,23.506C1.58,23.506,0,23.506,0,23.506C0,23.506,0,19.556,0,19.556C0,19.556,1.58,19.556,1.58,19.556C1.58,19.556,1.58,23.506,1.58,23.506C1.58,23.506,1.58,23.506,1.58,23.506M1.58,17.976C1.58,17.976,0,17.976,0,17.976C0,17.976,0,14.025,0,14.025C0,14.025,1.58,14.025,1.58,14.025C1.58,14.025,1.58,17.976,1.58,17.976C1.58,17.976,1.58,17.976,1.58,17.976M1.58,12.445C1.58,12.445,0,12.445,0,12.445C0,12.445,0,8.494,0,8.494C0,8.494,1.58,8.494,1.58,8.494C1.58,8.494,1.58,12.445,1.58,12.445C1.58,12.445,1.58,12.445,1.58,12.445M1.58,6.914C1.58,6.914,0,6.914,0,6.914C0,6.914,0,2.963,0,2.963C0,2.963,1.58,2.963,1.58,2.963C1.58,2.963,1.58,6.914,1.58,6.914C1.58,6.914,1.58,6.914,1.58,6.914M31.803,29.038C31.803,29.038,30.223,29.038,30.223,29.038C30.223,29.038,30.223,25.086,30.223,25.086C30.223,25.086,31.803,25.086,31.803,25.086C31.803,25.086,31.803,29.038,31.803,29.038C31.803,29.038,31.803,29.038,31.803,29.038M31.803,23.506C31.803,23.506,30.223,23.506,30.223,23.506C30.223,23.506,30.223,19.556,30.223,19.556C30.223,19.556,31.803,19.556,31.803,19.556C31.803,19.556,31.803,23.506,31.803,23.506C31.803,23.506,31.803,23.506,31.803,23.506M31.803,17.976C31.803,17.976,30.223,17.976,30.223,17.976C30.223,17.976,30.223,14.025,30.223,14.025C30.223,14.025,31.803,14.025,31.803,14.025C31.803,14.025,31.803,17.976,31.803,17.976C31.803,17.976,31.803,17.976,31.803,17.976M31.803,12.445C31.803,12.445,30.223,12.445,30.223,12.445C30.223,12.445,30.223,8.494,30.223,8.494C30.223,8.494,31.803,8.494,31.803,8.494C31.803,8.494,31.803,12.445,31.803,12.445C31.803,12.445,31.803,12.445,31.803,12.445M31.803,6.914C31.803,6.914,30.223,6.914,30.223,6.914C30.223,6.914,30.223,2.963,30.223,2.963C30.223,2.963,31.803,2.963,31.803,2.963C31.803,2.963,31.803,6.914,31.803,6.914C31.803,6.914,31.803,6.914,31.803,6.914M31.803,1.58C31.803,1.58,27.852,1.58,27.852,1.58C27.852,1.58,27.852,0,27.852,0C27.852,0,31.803,0,31.803,0C31.803,0,31.803,1.58,31.803,1.58C31.803,1.58,31.803,1.58,31.803,1.58M4.148,1.58C4.148,1.58,0,1.58,0,1.58C0,1.58,0,0,0,0C0,0,4.148,0,4.148,0C4.148,0,4.148,1.58,4.148,1.58C4.148,1.58,4.148,1.58,4.148,1.58M26.272,1.58C26.272,1.58,22.32,1.58,22.32,1.58C22.32,1.58,22.32,0,22.32,0C22.32,0,26.272,0,26.272,0C26.272,0,26.272,1.58,26.272,1.58C26.272,1.58,26.272,1.58,26.272,1.58M20.742,1.58C20.742,1.58,16.79,1.58,16.79,1.58C16.79,1.58,16.79,0,16.79,0C16.79,0,20.742,0,20.742,0C20.742,0,20.742,1.58,20.742,1.58C20.742,1.58,20.742,1.58,20.742,1.58M15.21,1.58C15.21,1.58,11.26,1.58,11.26,1.58C11.26,1.58,11.26,0,11.26,0C11.26,0,15.21,0,15.21,0C15.21,0,15.21,1.58,15.21,1.58C15.21,1.58,15.21,1.58,15.21,1.58M9.679,1.58C9.679,1.58,5.728,1.58,5.728,1.58C5.728,1.58,5.728,0,5.728,0C5.728,0,9.679,0,9.679,0C9.679,0,9.679,1.58,9.679,1.58C9.679,1.58,9.679,1.58,9.679,1.58M31.803,32C31.803,32,27.852,32,27.852,32C27.852,32,27.852,30.42,27.852,30.42C27.852,30.42,31.803,30.42,31.803,30.42C31.803,30.42,31.803,32,31.803,32C31.803,32,31.803,32,31.803,32M4.148,32C4.148,32,0,32,0,32C0,32,0,30.42,0,30.42C0,30.42,4.148,30.42,4.148,30.42C4.148,30.42,4.148,32,4.148,32C4.148,32,4.148,32,4.148,32M26.272,32C26.272,32,22.32,32,22.32,32C22.32,32,22.32,30.42,22.32,30.42C22.32,30.42,26.272,30.42,26.272,30.42C26.272,30.42,26.272,32,26.272,32C26.272,32,26.272,32,26.272,32M20.742,32C20.742,32,16.79,32,16.79,32C16.79,32,16.79,30.42,16.79,30.42C16.79,30.42,20.742,30.42,20.742,30.42C20.742,30.42,20.742,32,20.742,32C20.742,32,20.742,32,20.742,32M15.21,32C15.21,32,11.26,32,11.26,32C11.26,32,11.26,30.42,11.26,30.42C11.26,30.42,15.21,30.42,15.21,30.42C15.21,30.42,15.21,32,15.21,32C15.21,32,15.21,32,15.21,32M9.679,32C9.679,32,5.728,32,5.728,32C5.728,32,5.728,30.42,5.728,30.42C5.728,30.42,9.679,30.42,9.679,30.42C9.679,30.42,9.679,32,9.679,32C9.679,32,9.679,32,9.679,32"></path>
</svg>
