<svg width="50" height="29.6875" version="1.1"
  xmlns="http://www.w3.org/2000/svg" viewBox="0 0 32 19">
  <path transform="translate(0, 0)" d="M3.636,18.865C3.421,18.865,3.101,18.758,3.101,18.277C3.101,18.17,3.101,18.01,3.047,17.903C3.047,17.903,3.047,17.475,3.047,17.475C2.887,11.918,2.085,9.886,1.391,9.139C1.391,9.139,1.337,9.086,1.337,9.086C0.482,8.124,0.055,6.948,0.001,5.665C-0.052,3.313,1.498,1.122,3.742,0.374C3.742,0.374,3.849,0.374,3.849,0.374C4.063,0.267,4.33,0.214,4.544,0.214C5.185,0.053,5.773,0,6.361,0C8.339,0,10.101,0.695,11.652,2.138C13.256,3.581,13.843,5.238,13.362,7.268C13.362,7.375,13.415,7.536,13.469,7.643C13.576,7.803,13.682,7.962,13.789,8.176C13.789,8.176,14.27,8.872,14.27,8.872C14.484,9.298,14.644,9.727,14.699,10.101C14.805,10.422,14.699,10.582,14.592,10.689C14.537,10.848,14.324,10.956,14.003,11.009C14.003,11.009,13.041,11.009,13.041,11.009C13.041,11.009,13.041,11.116,13.041,11.116C12.988,11.329,13.041,11.544,13.041,11.811C13.041,11.811,13.041,12.399,13.041,12.399C13.041,12.399,12.56,12.399,12.56,12.399C12.346,12.399,12.133,12.399,11.972,12.452C11.812,12.452,11.652,12.452,11.492,12.506C11.598,12.612,11.759,12.665,11.919,12.773C11.919,12.773,12.56,13.2,12.56,13.2C12.774,13.361,12.988,13.574,12.988,13.895C12.988,14.162,12.721,14.376,12.507,14.536C12.24,14.696,12.133,14.803,12.186,15.071C12.24,15.284,12.24,15.552,12.186,15.872C12.133,16.353,11.759,16.674,11.278,16.674C11.278,16.674,11.063,16.674,11.063,16.674C11.063,16.674,10.156,16.513,10.156,16.513C9.782,16.46,9.461,16.46,9.087,16.353C9.087,16.353,8.98,16.353,8.98,16.353C8.98,16.353,8.98,16.782,8.98,16.782C9.033,17.208,9.033,17.689,9.033,18.117C9.033,18.331,9.033,18.492,8.926,18.544C8.765,18.705,8.606,18.705,8.446,18.705C8.446,18.705,8.071,18.705,8.071,18.705C7.696,18.651,7.163,18.598,6.575,18.598C5.612,18.598,4.598,18.705,3.956,18.812C3.849,18.865,3.742,18.865,3.636,18.865C3.636,18.865,3.636,18.865,3.636,18.865C3.636,18.865,3.636,18.865,3.636,18.865M3.582,18.331C3.582,18.331,3.636,18.331,3.636,18.331C3.636,18.331,3.849,18.331,3.849,18.331C4.544,18.17,5.612,18.063,6.575,18.063C7.215,18.063,7.751,18.117,8.125,18.17C8.284,18.17,8.391,18.224,8.446,18.224C8.446,18.224,8.552,18.224,8.552,18.224C8.552,18.224,8.552,18.17,8.552,18.17C8.499,17.689,8.499,17.263,8.499,16.782C8.499,16.782,8.499,16.46,8.499,16.46C8.446,16.193,8.446,16.032,8.606,15.926C8.658,15.82,8.765,15.82,8.873,15.82C8.98,15.82,9.087,15.82,9.194,15.872C9.194,15.872,10.209,16.032,10.209,16.032C10.53,16.032,10.85,16.086,11.171,16.139C11.224,16.193,11.224,16.193,11.278,16.193C11.492,16.193,11.652,16.032,11.652,15.82C11.705,15.552,11.705,15.338,11.652,15.124C11.598,14.696,11.759,14.322,12.186,14.055C12.4,13.948,12.453,13.895,12.453,13.842C12.453,13.842,12.4,13.788,12.24,13.628C12.24,13.628,11.598,13.2,11.598,13.2C11.438,13.093,11.331,12.986,11.171,12.88C11.171,12.88,11.063,12.88,11.063,12.88C10.904,12.773,10.797,12.719,10.743,12.612C10.636,12.506,10.69,12.292,10.797,12.184C10.85,12.132,10.957,12.078,11.331,11.971C11.492,11.918,11.705,11.918,11.919,11.918C11.919,11.918,12.507,11.918,12.507,11.918C12.507,11.918,12.507,11.811,12.507,11.811C12.507,11.811,12.507,11.116,12.507,11.116C12.507,10.689,12.721,10.475,13.148,10.475C13.148,10.475,13.256,10.475,13.256,10.475C13.469,10.528,13.736,10.528,13.95,10.475C14.056,10.475,14.163,10.422,14.218,10.422C14.218,10.422,14.218,10.208,14.218,10.208C14.163,9.886,14.003,9.512,13.789,9.139C13.682,8.924,13.522,8.711,13.362,8.443C13.362,8.443,12.988,7.91,12.988,7.91C12.881,7.695,12.827,7.375,12.881,7.162C13.256,5.291,12.774,3.848,11.331,2.512C9.835,1.176,8.177,0.481,6.361,0.481C5.827,0.481,5.239,0.588,4.651,0.695C4.651,0.695,4.01,0.855,4.01,0.855C4.01,0.855,3.903,0.855,3.903,0.855C1.872,1.55,0.482,3.527,0.536,5.665C0.536,6.84,1.017,7.91,1.765,8.817C1.765,8.817,1.818,8.872,1.818,8.872C2.834,9.993,3.421,12.719,3.582,17.048C3.582,17.048,3.582,17.475,3.582,17.475C3.582,17.475,3.582,18.277,3.582,18.277C3.582,18.277,3.582,18.331,3.582,18.331C3.582,18.331,3.582,18.331,3.582,18.331C3.582,18.331,3.582,18.331,3.582,18.331M16.568,10.154C16.516,10.101,16.516,9.993,16.623,9.993C16.623,9.993,25.6,5.771,25.6,5.771C25.707,5.719,25.814,5.719,25.867,5.771C25.974,5.825,25.921,5.932,25.814,5.985C25.814,5.985,16.835,10.208,16.835,10.208C16.729,10.26,16.623,10.208,16.568,10.154C16.568,10.154,16.568,10.154,16.568,10.154C16.568,10.154,16.568,10.154,16.568,10.154M16.568,14.857C16.516,14.964,16.568,15.017,16.623,15.071C16.623,15.071,25.333,18.865,25.333,18.865C25.44,18.918,25.547,18.918,25.6,18.865C25.653,18.758,25.653,18.705,25.547,18.651C25.547,18.651,16.835,14.857,16.835,14.857C16.729,14.803,16.623,14.803,16.568,14.857C16.568,14.857,16.568,14.857,16.568,14.857C16.568,14.857,16.568,14.857,16.568,14.857M18.011,12.773C17.958,12.559,18.065,12.345,18.278,12.292C18.439,12.238,18.653,12.292,18.759,12.452C18.866,12.612,18.866,12.826,18.759,13.04C18.546,13.254,18.385,13.307,18.172,13.093C18.065,13.04,18.011,12.88,18.011,12.773C18.011,12.773,18.011,12.773,18.011,12.773C18.011,12.773,18.011,12.773,18.011,12.773M18.546,12.506C18.439,12.452,18.333,12.452,18.226,12.559C18.172,12.665,18.172,12.826,18.278,12.933C18.385,13.04,18.492,13.04,18.546,12.933C18.653,12.826,18.653,12.612,18.546,12.506C18.546,12.506,18.546,12.506,18.546,12.506C18.546,12.506,18.546,12.506,18.546,12.506M21.913,10.635C21.592,10.741,21.325,10.741,21.164,10.528C21.058,10.422,21.004,10.154,21.164,9.941C21.378,9.673,21.645,9.566,21.913,9.673C22.287,9.727,22.447,9.941,22.287,10.315C22.233,10.422,22.073,10.528,21.913,10.635C21.913,10.635,21.913,10.635,21.913,10.635C21.913,10.635,21.913,10.635,21.913,10.635M21.378,10.101C21.272,10.26,21.378,10.422,21.485,10.475C21.699,10.528,21.913,10.367,22.02,10.208C22.073,10.047,22.02,9.941,21.859,9.886C21.645,9.834,21.432,9.941,21.378,10.101C21.378,10.101,21.378,10.101,21.378,10.101C21.378,10.101,21.378,10.101,21.378,10.101M25.119,15.872C25.119,15.872,24.852,15.872,24.852,15.872C24.852,15.872,24.852,16.193,24.852,16.193C24.852,16.193,24.852,16.353,24.852,16.353C24.799,16.407,24.799,16.407,24.745,16.407C24.692,16.407,24.638,16.353,24.692,16.301C24.745,16.193,24.692,16.086,24.692,15.979C24.638,15.926,24.638,15.872,24.585,15.872C24.585,15.872,24.371,15.872,24.371,15.872C24.317,16.086,24.211,16.246,24.104,16.46C24.104,16.46,24.05,16.513,23.997,16.513C23.943,16.46,23.943,16.407,23.997,16.353C24.05,16.193,24.157,16.032,24.211,15.872C24.211,15.872,23.943,15.765,23.943,15.765C23.89,15.872,23.783,15.979,23.73,16.086C23.73,16.086,23.623,16.193,23.623,16.193C23.569,16.246,23.569,16.246,23.516,16.193C23.462,16.139,23.462,16.086,23.516,16.086C23.623,15.926,23.73,15.82,23.783,15.712C23.783,15.712,23.462,15.498,23.462,15.498C23.356,15.712,23.249,15.82,23.088,15.926C23.035,15.926,22.981,15.926,22.928,15.872C22.928,15.82,22.928,15.82,22.981,15.765C23.142,15.712,23.249,15.552,23.356,15.445C23.356,15.445,23.035,15.177,23.035,15.177C22.981,15.231,22.928,15.338,22.875,15.338C22.821,15.391,22.714,15.445,22.661,15.445C22.606,15.498,22.554,15.445,22.554,15.391C22.554,15.338,22.554,15.284,22.606,15.284C22.768,15.284,22.821,15.231,22.928,15.071C22.714,14.91,22.554,14.696,22.34,14.483C22.18,14.643,22.02,14.696,21.806,14.643C21.752,14.643,21.699,14.59,21.699,14.536C21.699,14.483,21.752,14.483,21.806,14.483C21.966,14.536,22.073,14.483,22.233,14.376C22.233,14.376,22.126,14.216,22.126,14.216C22.126,14.162,22.073,14.162,22.073,14.162C21.913,14.216,21.752,14.216,21.592,14.109C21.539,14.109,21.539,14.055,21.539,14.002C21.592,13.948,21.645,13.948,21.699,14.002C21.806,14.055,21.913,14.055,22.073,14.002C21.966,13.735,22.02,13.521,22.233,13.307C22.18,13.2,22.126,13.147,22.02,13.04C22.02,13.04,22.02,12.933,22.02,12.933C21.966,12.933,21.966,12.88,22.02,12.826C22.073,12.826,22.126,12.826,22.126,12.88C22.126,12.88,22.233,13.04,22.233,13.04C22.233,13.04,22.233,13.093,22.287,13.093C22.34,13.2,22.394,13.254,22.554,13.2C22.554,13.2,22.606,13.2,22.606,13.2C22.606,13.2,22.606,12.986,22.606,12.986C22.606,12.88,22.606,12.773,22.661,12.719C22.661,12.665,22.714,12.612,22.768,12.665C22.821,12.665,22.821,12.719,22.821,12.773C22.768,12.933,22.768,13.04,22.821,13.2C22.821,13.254,22.875,13.307,22.928,13.361C22.981,13.361,22.981,13.414,23.035,13.467C23.088,13.361,23.142,13.307,23.142,13.2C23.195,13.2,23.195,13.147,23.195,13.093C23.249,13.093,23.249,13.04,23.302,13.093C23.356,13.093,23.409,13.147,23.356,13.2C23.302,13.307,23.195,13.467,23.142,13.628C23.195,13.681,23.302,13.788,23.356,13.895C23.356,13.895,23.516,13.574,23.516,13.574C23.569,13.521,23.569,13.467,23.623,13.467C23.623,13.414,23.676,13.414,23.73,13.414C23.783,13.467,23.783,13.521,23.73,13.521C23.73,13.521,23.569,13.895,23.569,13.895C23.516,14.002,23.516,14.002,23.623,14.109C23.676,14.109,23.73,14.162,23.783,14.216C23.837,14.109,23.89,14.002,23.943,13.842C23.943,13.842,23.997,13.788,23.997,13.788C24.05,13.735,24.05,13.735,24.104,13.788C24.157,13.788,24.157,13.842,24.157,13.895C24.05,14.002,23.997,14.109,23.943,14.269C24.104,14.322,24.211,14.376,24.371,14.429C24.371,14.429,24.371,14.109,24.371,14.109C24.371,14.055,24.424,14.002,24.424,13.948C24.424,13.948,24.478,13.895,24.531,13.895C24.531,13.895,24.585,13.948,24.585,14.002C24.585,14.002,24.531,14.055,24.531,14.109C24.531,14.109,24.531,14.429,24.531,14.429C24.531,14.429,24.585,14.483,24.585,14.483C24.692,14.483,24.799,14.536,24.959,14.536C24.959,14.536,24.959,14.162,24.959,14.162C24.959,14.055,25.012,14.055,25.066,14.055C25.066,14.055,25.119,14.109,25.119,14.162C25.119,14.162,25.119,14.536,25.119,14.536C25.119,14.536,25.44,14.536,25.44,14.536C25.44,14.429,25.386,14.376,25.386,14.269C25.333,14.216,25.333,14.162,25.333,14.109C25.333,14.055,25.386,14.055,25.44,14.055C25.493,14.055,25.493,14.109,25.493,14.162C25.493,14.269,25.547,14.376,25.6,14.429C25.6,14.483,25.653,14.536,25.707,14.483C25.814,14.483,25.867,14.483,25.974,14.429C25.974,14.429,25.974,13.948,25.974,13.948C26.027,13.895,26.027,13.842,26.081,13.735C26.081,13.735,26.188,13.735,26.188,13.735C26.188,13.735,26.242,13.788,26.188,13.842C26.135,14.002,26.135,14.216,26.135,14.429C26.295,14.376,26.455,14.322,26.562,14.322C26.562,14.322,26.562,13.948,26.562,13.948C26.562,13.842,26.615,13.842,26.669,13.842C26.723,13.842,26.723,13.895,26.723,13.948C26.723,13.948,26.723,14.269,26.723,14.269C26.829,14.269,26.936,14.322,27.043,14.322C27.097,14.162,27.15,14.055,27.257,13.948C27.257,13.895,27.31,13.895,27.363,13.895C27.417,13.948,27.363,14.002,27.363,14.002C27.31,14.162,27.257,14.269,27.15,14.376C27.257,14.429,27.31,14.536,27.363,14.59C27.417,14.429,27.524,14.322,27.685,14.269C27.737,14.216,27.737,14.216,27.791,14.269C27.791,14.322,27.791,14.376,27.737,14.429C27.631,14.429,27.578,14.483,27.524,14.59C27.524,14.643,27.471,14.643,27.417,14.696C27.471,14.696,27.471,14.75,27.471,14.803C27.578,14.75,27.737,14.75,27.844,14.75C27.844,14.75,28.005,14.75,28.005,14.75C28.005,14.75,28.059,14.803,28.059,14.803C28.059,14.857,28.005,14.91,27.951,14.91C27.791,14.857,27.631,14.91,27.471,14.964C27.471,15.017,27.471,15.124,27.417,15.177C27.417,15.177,27.471,15.124,27.471,15.124C27.578,15.177,27.685,15.177,27.791,15.231C27.844,15.231,27.898,15.231,27.898,15.284C27.898,15.284,27.898,15.391,27.898,15.391C27.898,15.391,27.791,15.391,27.791,15.391C27.791,15.391,27.417,15.338,27.417,15.338C27.363,15.338,27.257,15.445,27.257,15.498C27.257,15.498,27.257,15.552,27.257,15.552C27.31,15.658,27.417,15.765,27.471,15.82C27.471,15.82,27.471,15.872,27.471,15.872C27.471,15.926,27.471,15.979,27.417,15.979C27.363,16.032,27.363,15.979,27.31,15.926C27.31,15.926,27.15,15.605,27.15,15.605C27.15,15.605,27.043,15.605,27.043,15.605C27.043,15.605,26.723,15.765,26.723,15.765C26.776,15.82,26.829,15.926,26.829,15.979C26.883,16.086,26.883,16.139,26.883,16.246C26.883,16.301,26.883,16.301,26.829,16.301C26.776,16.301,26.723,16.301,26.723,16.246C26.723,16.086,26.669,15.926,26.562,15.82C26.562,15.82,26.508,15.82,26.508,15.82C26.508,15.82,26.295,15.82,26.295,15.82C26.295,15.82,26.455,16.246,26.455,16.246C26.455,16.301,26.455,16.353,26.402,16.353C26.295,16.407,26.295,16.353,26.295,16.301C26.242,16.193,26.188,16.086,26.188,15.979C26.188,15.979,26.081,15.82,26.081,15.82C26.027,15.82,25.921,15.82,25.761,15.872C25.814,15.872,25.814,15.926,25.814,15.926C25.867,16.032,25.867,16.139,25.814,16.246C25.761,16.301,25.761,16.353,25.707,16.301C25.653,16.301,25.653,16.246,25.653,16.193C25.707,16.086,25.653,15.979,25.6,15.872C25.6,15.872,25.279,15.872,25.279,15.872C25.279,15.979,25.333,16.086,25.333,16.193C25.333,16.193,25.333,16.301,25.333,16.301C25.333,16.353,25.279,16.353,25.226,16.353C25.226,16.353,25.173,16.301,25.173,16.301C25.173,16.193,25.173,16.086,25.119,15.979C25.119,15.979,25.119,15.872,25.119,15.872C25.119,15.872,25.119,15.872,25.119,15.872C25.119,15.872,25.119,15.872,25.119,15.872M22.928,13.574C22.768,13.414,22.554,13.361,22.394,13.467C22.233,13.521,22.126,13.735,22.18,13.895C22.233,14.109,22.394,14.269,22.5,14.429C22.661,14.59,22.821,14.75,22.981,14.91C22.981,14.91,23.569,15.391,23.569,15.391C23.997,15.658,24.424,15.765,24.905,15.712C25.226,15.712,25.547,15.712,25.867,15.658C26.135,15.658,26.402,15.658,26.669,15.605C26.936,15.552,27.15,15.391,27.257,15.124C27.31,15.071,27.31,14.964,27.31,14.857C27.31,14.643,27.097,14.483,26.829,14.483C26.669,14.429,26.508,14.483,26.348,14.536C26.348,14.536,25.707,14.696,25.707,14.696C25.119,14.75,24.585,14.696,24.05,14.536C23.623,14.376,23.302,14.162,23.088,13.788C23.088,13.788,22.928,13.574,22.928,13.574C22.928,13.574,22.928,13.574,22.928,13.574C22.928,13.574,22.928,13.574,22.928,13.574M22.928,13.842C23.035,14.002,23.035,14.109,22.928,14.216C22.821,14.322,22.661,14.376,22.554,14.269C22.394,14.162,22.34,13.895,22.447,13.735C22.447,13.681,22.5,13.628,22.554,13.628C22.714,13.681,22.875,13.735,22.928,13.842C22.928,13.842,22.928,13.842,22.928,13.842C22.928,13.842,22.928,13.842,22.928,13.842M22.554,13.788C22.554,13.948,22.554,14.055,22.606,14.109C22.661,14.216,22.768,14.162,22.821,14.109C22.875,14.055,22.875,14.002,22.821,13.948C22.821,13.948,22.554,13.788,22.554,13.788C22.554,13.788,22.554,13.788,22.554,13.788C22.554,13.788,22.554,13.788,22.554,13.788M23.142,14.857C23.035,14.696,23.088,14.59,23.142,14.483C23.195,14.322,23.302,14.376,23.409,14.376C23.623,14.429,23.73,14.536,23.837,14.696C23.943,14.803,23.837,14.964,23.73,15.017C23.516,15.124,23.356,15.017,23.195,14.91C23.195,14.91,23.142,14.857,23.142,14.857C23.142,14.857,23.142,14.857,23.142,14.857C23.142,14.857,23.142,14.857,23.142,14.857M23.249,14.75C23.356,14.857,23.462,14.91,23.623,14.91C23.623,14.91,23.73,14.803,23.73,14.803C23.73,14.803,23.676,14.696,23.676,14.696C23.676,14.696,23.356,14.536,23.356,14.536C23.302,14.536,23.249,14.59,23.249,14.643C23.249,14.643,23.249,14.75,23.249,14.75C23.249,14.75,23.249,14.75,23.249,14.75C23.249,14.75,23.249,14.75,23.249,14.75M24.371,11.116C24.478,11.276,24.478,11.383,24.371,11.49C24.211,11.597,24.05,11.597,23.943,11.544C23.783,11.383,23.73,11.17,23.837,10.956C23.89,10.902,23.943,10.902,23.997,10.902C24.157,10.956,24.264,11.009,24.371,11.116C24.371,11.116,24.371,11.116,24.371,11.116C24.371,11.116,24.371,11.116,24.371,11.116M23.997,11.063C23.943,11.17,23.943,11.276,23.997,11.383C24.05,11.437,24.157,11.437,24.264,11.383C24.317,11.329,24.317,11.276,24.211,11.222C24.211,11.222,23.997,11.063,23.997,11.063C23.997,11.063,23.997,11.063,23.997,11.063C23.997,11.063,23.997,11.063,23.997,11.063M25.279,15.391C25.119,15.552,24.905,15.552,24.692,15.552C24.585,15.552,24.424,15.498,24.317,15.445C24.211,15.445,24.104,15.338,24.05,15.231C23.997,15.017,24.104,14.857,24.371,14.803C24.424,14.803,24.478,14.857,24.531,14.857C24.531,14.857,24.692,14.857,24.692,14.857C24.852,14.803,25.012,14.803,25.173,14.803C25.333,14.857,25.386,14.91,25.44,15.071C25.493,15.231,25.386,15.338,25.279,15.391C25.279,15.391,25.279,15.391,25.279,15.391C25.279,15.391,25.279,15.391,25.279,15.391M25.173,15.284C25.226,15.231,25.279,15.177,25.279,15.124C25.279,15.017,25.173,15.017,25.119,14.964C24.959,14.964,24.799,15.017,24.638,15.017C24.638,15.017,24.478,15.017,24.478,15.017C24.424,14.964,24.317,14.964,24.264,15.017C24.211,15.071,24.211,15.124,24.264,15.231C24.264,15.231,24.371,15.338,24.371,15.338C24.478,15.338,24.585,15.391,24.692,15.391C24.852,15.391,25.012,15.391,25.173,15.284C25.173,15.284,25.173,15.284,25.173,15.284C25.173,15.284,25.173,15.284,25.173,15.284M27.631,10.902C27.685,10.902,27.685,10.956,27.685,11.009C27.631,11.063,27.578,11.063,27.524,11.009C27.524,11.009,27.471,10.956,27.417,10.956C27.31,10.902,27.257,10.848,27.15,10.902C27.15,10.956,27.097,10.956,27.15,11.009C27.204,11.063,27.204,11.17,27.257,11.276C27.257,11.276,27.257,11.329,27.204,11.383C27.204,11.383,27.15,11.383,27.097,11.329C27.097,11.329,27.097,11.276,27.043,11.276C27.043,11.17,26.989,11.063,26.936,11.009C26.883,11.009,26.829,11.009,26.829,11.063C26.829,11.063,26.829,11.222,26.829,11.222C26.829,11.276,26.829,11.329,26.776,11.329C26.723,11.329,26.669,11.329,26.669,11.222C26.669,11.222,26.669,11.063,26.669,11.063C26.669,10.956,26.669,10.956,26.562,10.956C26.562,10.956,26.562,11.009,26.508,11.063C26.455,11.116,26.402,11.222,26.508,11.329C26.562,11.437,26.508,11.651,26.455,11.703C26.295,11.811,26.027,11.757,25.974,11.544C25.867,11.329,25.974,11.17,26.188,11.116C26.188,11.116,26.295,11.116,26.295,11.116C26.295,11.116,26.455,10.796,26.455,10.796C26.402,10.796,26.402,10.796,26.402,10.741C26.402,10.741,26.242,10.902,26.242,10.902C26.188,10.902,26.135,10.956,26.081,10.902C26.081,10.848,26.081,10.796,26.135,10.741C26.135,10.741,26.242,10.635,26.242,10.635C26.295,10.635,26.295,10.582,26.242,10.475C26.188,10.528,26.081,10.528,26.027,10.582C25.974,10.582,25.921,10.582,25.867,10.528C25.867,10.475,25.867,10.422,25.921,10.422C26.027,10.367,26.135,10.367,26.188,10.315C26.188,10.315,26.188,10.154,26.188,10.154C26.081,10.154,25.974,10.154,25.867,10.101C25.814,10.101,25.761,10.101,25.761,10.047C25.761,9.993,25.814,9.941,25.867,9.941C25.867,9.941,26.188,9.941,26.188,9.941C26.242,9.834,26.242,9.834,26.135,9.727C26.081,9.727,26.081,9.673,26.027,9.673C25.974,9.62,25.974,9.62,26.027,9.566C26.081,9.512,26.135,9.512,26.135,9.566C26.188,9.566,26.242,9.62,26.295,9.62C26.348,9.566,26.402,9.566,26.402,9.512C26.402,9.46,26.348,9.46,26.348,9.405C26.348,9.246,26.295,9.139,26.295,9.031C26.295,8.979,26.295,8.924,26.242,8.924C26.188,8.872,26.135,8.872,26.135,8.817C25.974,8.657,26.135,8.391,26.348,8.336C26.508,8.336,26.615,8.443,26.615,8.605C26.615,8.657,26.562,8.765,26.508,8.817C26.455,8.817,26.455,8.872,26.455,8.924C26.508,9.086,26.508,9.246,26.508,9.46C26.615,9.405,26.669,9.405,26.723,9.353C26.723,9.298,26.723,9.192,26.669,9.139C26.669,9.031,26.723,9.031,26.776,8.979C26.829,8.979,26.829,9.031,26.883,9.086C26.883,9.086,26.883,9.298,26.883,9.298C26.883,9.353,26.936,9.353,26.936,9.353C26.989,9.405,27.043,9.405,27.097,9.405C27.097,9.405,27.257,9.192,27.257,9.192C27.257,9.139,27.31,9.086,27.363,9.139C27.417,9.192,27.417,9.246,27.363,9.298C27.31,9.353,27.31,9.405,27.257,9.512C27.257,9.512,27.257,9.566,27.31,9.566C27.31,9.62,27.363,9.62,27.363,9.566C27.471,9.566,27.524,9.512,27.578,9.512C27.631,9.46,27.685,9.512,27.685,9.566C27.737,9.62,27.685,9.673,27.631,9.673C27.578,9.727,27.524,9.727,27.417,9.779C27.471,9.834,27.524,9.941,27.524,9.993C27.631,9.993,27.685,9.941,27.791,9.941C27.791,9.941,27.844,9.941,27.844,9.993C27.844,9.993,27.844,10.101,27.844,10.101C27.737,10.101,27.685,10.154,27.578,10.154C27.578,10.154,27.578,10.367,27.578,10.367C27.578,10.367,27.951,10.367,27.951,10.367C28.005,10.422,28.005,10.367,28.059,10.367C28.112,10.315,28.166,10.26,28.218,10.26C28.433,10.208,28.593,10.367,28.593,10.528C28.593,10.689,28.54,10.796,28.325,10.848C28.166,10.902,28.005,10.796,27.951,10.635C27.951,10.635,27.951,10.582,27.951,10.582C27.791,10.528,27.685,10.528,27.578,10.528C27.471,10.582,27.417,10.689,27.417,10.741C27.417,10.741,27.631,10.902,27.631,10.902C27.631,10.902,27.631,10.902,27.631,10.902C27.631,10.902,27.631,10.902,27.631,10.902M26.776,15.284C26.508,15.498,26.295,15.445,26.081,15.391C26.081,15.391,25.921,15.284,25.921,15.284C25.707,15.124,25.761,14.964,25.921,14.857C25.974,14.803,26.081,14.803,26.135,14.803C26.295,14.75,26.455,14.696,26.615,14.75C26.776,14.75,26.936,14.91,26.936,15.017C26.936,15.177,26.829,15.284,26.776,15.284C26.776,15.284,26.776,15.284,26.776,15.284C26.776,15.284,26.776,15.284,26.776,15.284M26.669,15.177C26.723,15.124,26.776,15.071,26.723,15.017C26.723,14.964,26.669,14.91,26.615,14.91C26.615,14.91,26.402,14.91,26.402,14.91C26.242,14.91,26.135,14.964,26.027,14.964C25.974,15.017,25.974,15.017,25.974,15.071C25.921,15.071,25.974,15.124,25.974,15.124C26.135,15.284,26.455,15.338,26.615,15.177C26.615,15.177,26.669,15.177,26.669,15.177C26.669,15.177,26.669,15.177,26.669,15.177C26.669,15.177,26.669,15.177,26.669,15.177M26.242,11.383C26.242,11.383,26.242,11.329,26.242,11.329C26.242,11.329,26.135,11.329,26.135,11.329C26.135,11.383,26.081,11.437,26.135,11.49C26.135,11.544,26.242,11.597,26.295,11.597C26.348,11.544,26.348,11.544,26.348,11.49C26.348,11.437,26.348,11.329,26.242,11.383C26.242,11.383,26.242,11.383,26.242,11.383C26.242,11.383,26.242,11.383,26.242,11.383M26.348,8.711C26.402,8.711,26.402,8.657,26.455,8.605C26.455,8.55,26.402,8.498,26.348,8.498C26.295,8.55,26.188,8.605,26.188,8.657C26.242,8.711,26.295,8.765,26.348,8.711C26.348,8.711,26.348,8.711,26.348,8.711C26.348,8.711,26.348,8.711,26.348,8.711M27.363,10.475C27.524,10.101,27.204,9.62,26.883,9.566C26.723,9.512,26.562,9.62,26.455,9.727C26.242,10.047,26.348,10.582,26.723,10.741C26.776,10.796,26.829,10.796,26.936,10.848C27.15,10.796,27.257,10.635,27.363,10.475C27.363,10.475,27.363,10.475,27.363,10.475C27.363,10.475,27.363,10.475,27.363,10.475M31.212,9.834C31.533,9.941,31.693,10.047,31.745,10.26C31.8,10.315,31.745,10.367,31.745,10.422C31.745,10.422,31.586,10.422,31.586,10.422C31.586,10.367,31.586,10.367,31.533,10.315C31.479,10.154,31.319,10.047,31.158,10.047C31.105,10.101,31.105,10.208,31.052,10.26C31.105,10.26,31.158,10.315,31.212,10.367C31.212,10.367,31.426,10.741,31.426,10.741C31.479,10.848,31.426,10.902,31.371,10.902C31.319,10.956,31.264,10.902,31.212,10.848C31.158,10.689,31.105,10.528,30.945,10.422C30.945,10.475,30.945,10.475,30.89,10.528C30.783,10.582,30.783,10.635,30.838,10.741C30.945,10.902,30.945,11.063,30.89,11.222C30.89,11.276,30.838,11.329,30.783,11.329C30.731,11.276,30.677,11.222,30.677,11.17C30.731,11.009,30.731,10.902,30.677,10.796C30.623,10.741,30.623,10.741,30.571,10.741C30.464,10.741,30.357,10.796,30.303,10.796C30.303,10.796,30.303,10.902,30.303,10.902C30.303,10.902,30.196,11.329,30.196,11.329C30.143,11.383,30.09,11.383,30.035,11.329C30.035,11.329,29.983,11.276,29.983,11.222C30.035,11.116,30.09,11.009,30.09,10.902C30.09,10.848,30.143,10.796,30.143,10.796C30.143,10.796,29.822,10.582,29.822,10.582C29.554,10.315,29.395,9.993,29.234,9.673C29.128,9.353,28.967,9.031,28.753,8.817C28.699,8.711,28.593,8.657,28.486,8.605C28.433,8.605,28.379,8.55,28.272,8.55C28.218,8.498,28.166,8.498,28.112,8.443C28.112,8.443,28.112,8.498,28.112,8.498C28.005,8.605,27.951,8.711,27.844,8.817C27.844,8.817,27.737,8.817,27.737,8.817C27.685,8.765,27.685,8.711,27.737,8.711C27.791,8.55,27.898,8.498,28.005,8.391C28.005,8.391,27.737,8.069,27.737,8.069C27.737,8.124,27.685,8.124,27.631,8.124C27.524,8.176,27.417,8.176,27.31,8.23C27.257,8.284,27.204,8.284,27.15,8.176C27.097,8.124,27.15,8.069,27.257,8.069C27.257,8.069,27.685,7.91,27.685,7.91C27.737,7.855,27.737,7.803,27.737,7.695C27.578,7.643,27.471,7.588,27.31,7.588C27.257,7.536,27.204,7.481,27.257,7.429C27.257,7.375,27.31,7.321,27.363,7.375C27.471,7.429,27.578,7.429,27.685,7.481C27.791,7.536,27.898,7.536,27.951,7.429C27.844,7.375,27.791,7.268,27.685,7.162C27.631,7.107,27.578,7.055,27.578,6.948C27.578,6.948,27.578,6.84,27.631,6.84C27.631,6.84,27.737,6.84,27.737,6.84C27.737,6.84,28.112,7.375,28.112,7.375C28.218,7.321,28.272,7.321,28.325,7.321C28.272,7.107,28.218,7.001,28.166,6.84C28.112,6.733,28.112,6.733,28.166,6.681C28.272,6.681,28.325,6.681,28.325,6.733C28.325,6.733,28.486,7.214,28.486,7.214C28.486,7.268,28.54,7.268,28.593,7.268C28.753,7.321,28.914,7.321,29.073,7.429C29.234,7.536,29.341,7.643,29.502,7.749C29.502,7.749,30.464,8.391,30.464,8.391C30.731,8.605,30.945,8.817,31.105,9.086C31.158,9.192,31.158,9.298,31.212,9.405C31.212,9.405,31.264,9.353,31.264,9.353C31.533,9.353,31.8,9.405,31.959,9.62C32.014,9.673,32.014,9.727,31.959,9.779C31.907,9.834,31.852,9.834,31.8,9.779C31.693,9.62,31.586,9.566,31.426,9.566C31.319,9.566,31.264,9.512,31.212,9.512C31.212,9.512,31.212,9.834,31.212,9.834C31.212,9.834,31.212,9.834,31.212,9.834C31.212,9.834,31.212,9.834,31.212,9.834M29.447,7.962C29.287,7.855,29.128,7.695,28.914,7.588C28.647,7.429,28.325,7.429,28.059,7.643C27.844,7.749,27.844,7.91,28.005,8.069C28.112,8.23,28.272,8.336,28.486,8.391C28.807,8.498,28.967,8.711,29.128,8.924C29.128,8.924,29.609,9.993,29.609,9.993C29.769,10.26,29.983,10.475,30.25,10.582C30.464,10.635,30.623,10.582,30.783,10.367C30.945,10.047,31.052,9.727,30.945,9.405C30.945,9.246,30.838,9.139,30.783,9.031C30.731,8.872,30.623,8.817,30.516,8.657C30.303,8.55,30.09,8.443,29.876,8.284C29.876,8.284,29.447,7.962,29.447,7.962C29.447,7.962,29.447,7.962,29.447,7.962C29.447,7.962,29.447,7.962,29.447,7.962M28.433,10.528C28.433,10.475,28.379,10.422,28.325,10.422C28.218,10.422,28.112,10.528,28.112,10.582C28.112,10.635,28.218,10.689,28.272,10.689C28.379,10.689,28.433,10.635,28.433,10.528C28.433,10.528,28.433,10.528,28.433,10.528C28.433,10.528,28.433,10.528,28.433,10.528M28.753,17.263C28.86,17.369,28.86,17.529,28.753,17.582C28.647,17.743,28.433,17.743,28.325,17.637C28.166,17.529,28.112,17.263,28.218,17.101C28.272,17.048,28.325,16.994,28.379,17.048C28.54,17.048,28.647,17.156,28.753,17.263C28.753,17.263,28.753,17.263,28.753,17.263C28.753,17.263,28.753,17.263,28.753,17.263M28.379,17.156C28.325,17.315,28.325,17.422,28.379,17.475C28.433,17.582,28.54,17.582,28.647,17.475C28.699,17.422,28.699,17.369,28.593,17.315C28.593,17.315,28.379,17.156,28.379,17.156C28.379,17.156,28.379,17.156,28.379,17.156C28.379,17.156,28.379,17.156,28.379,17.156M29.928,15.177C29.715,15.284,29.502,15.284,29.341,15.124C29.234,15.017,29.234,14.803,29.341,14.696C29.502,14.483,29.715,14.429,29.928,14.483C30.196,14.536,30.303,14.696,30.196,14.964C30.143,15.071,30.035,15.124,29.928,15.177C29.928,15.177,29.928,15.177,29.928,15.177C29.928,15.177,29.928,15.177,29.928,15.177M29.502,14.803C29.447,14.91,29.502,15.017,29.609,15.071C29.769,15.124,29.928,15.017,30.035,14.857C30.09,14.75,30.035,14.696,29.876,14.643C29.715,14.59,29.554,14.696,29.502,14.803C29.502,14.803,29.502,14.803,29.502,14.803C29.502,14.803,29.502,14.803,29.502,14.803M29.769,9.353C29.715,9.139,29.822,8.979,30.035,8.872C30.196,8.817,30.409,8.872,30.516,9.031C30.623,9.246,30.623,9.46,30.516,9.62C30.357,9.834,30.143,9.886,29.928,9.673C29.822,9.62,29.769,9.512,29.769,9.353C29.769,9.353,29.769,9.353,29.769,9.353C29.769,9.353,29.769,9.353,29.769,9.353M30.303,9.139C30.25,9.031,30.09,9.031,29.983,9.139C29.928,9.246,29.928,9.46,30.035,9.566C30.143,9.62,30.25,9.62,30.357,9.512C30.409,9.405,30.409,9.192,30.303,9.139C30.303,9.139,30.303,9.139,30.303,9.139C30.303,9.139,30.303,9.139,30.303,9.139M30.89,6.626C30.997,6.787,30.997,6.894,30.89,7.001C30.783,7.107,30.623,7.162,30.516,7.055C30.357,6.948,30.303,6.681,30.409,6.52C30.409,6.467,30.464,6.413,30.516,6.413C30.731,6.467,30.838,6.52,30.89,6.626C30.89,6.626,30.89,6.626,30.89,6.626C30.89,6.626,30.89,6.626,30.89,6.626M30.516,6.574C30.516,6.733,30.516,6.787,30.571,6.894C30.623,6.948,30.731,6.948,30.783,6.894C30.838,6.84,30.838,6.787,30.783,6.733C30.731,6.681,30.623,6.626,30.516,6.574C30.516,6.574,30.516,6.574,30.516,6.574C30.516,6.574,30.516,6.574,30.516,6.574"></path>
</svg>
