<svg width="50" height="50" version="1.1"
  xmlns="http://www.w3.org/2000/svg" viewBox="0 0 32 32">
  <path transform="translate(0, 0)" d="M31.855,11.541C32,11.344,32.033,11.101,31.969,10.884C31.968,10.878,31.968,10.874,31.966,10.868C31.383,8.57,27.711,7.068,27.249,7.044C27.21,7.025,27.17,7.011,27.131,6.994C27.131,6.994,27.136,6.993,27.136,6.993C27.136,6.993,26.868,6.558,26.868,6.558C26.868,6.558,26.289,6.558,26.289,6.558C26.289,6.558,25.608,6.558,25.608,6.558C25.608,6.558,25.029,6.558,25.029,6.558C25.029,6.558,24.762,6.993,24.762,6.993C24.762,6.993,24.762,6.993,24.762,6.993C23.838,7.251,20.549,8.764,19.987,10.981C19.985,10.987,19.986,10.992,19.984,10.998C19.917,11.227,19.951,11.484,20.104,11.691C20.104,11.691,21.886,14.055,22.905,14.772C22.863,14.917,22.819,15.078,22.775,15.246C22.773,15.237,22.77,15.23,22.768,15.221C22.762,15.262,22.757,15.301,22.751,15.341C22.511,16.284,22.28,17.542,22.25,18.89C22.233,19.007,22.233,19.007,22.233,19.007C22.233,19.007,21.023,27.979,21.023,27.979C21.763,28.195,22.47,28.353,23.143,28.466C23.324,30.234,23.647,31.886,24.22,31.886C24.77,31.886,25.089,30.371,25.274,28.689C25.752,28.708,26.205,28.705,26.63,28.685C26.817,30.331,27.135,31.794,27.674,31.794C28.242,31.794,28.563,30.177,28.746,28.431C30.158,28.149,30.948,27.75,30.948,27.75C30.948,27.75,29.718,19.006,29.718,19.006C29.718,19.006,29.717,19.005,29.644,18.481C29.592,16.931,29.298,15.525,29.054,14.636C29.948,14.226,31.855,11.541,31.855,11.541C31.855,11.541,31.855,11.541,31.855,11.541M23.354,13.583C23.321,13.643,23.292,13.707,23.262,13.77C22.817,12.851,22.01,11.655,21.612,11.084C21.92,10.946,22.204,10.794,22.395,10.676C22.572,10.567,22.823,10.405,23.092,10.226C23.15,10.646,23.295,11.037,23.509,11.382C23.555,11.634,23.584,11.895,23.584,12.164C23.584,12.608,23.475,13.192,23.353,13.582C23.353,13.582,23.354,13.583,23.354,13.583C23.354,13.583,23.354,13.583,23.354,13.583M25.976,13.863C25.976,13.863,25.572,13.35,25.572,13.35C25.572,13.35,25.655,7.862,25.655,7.862C25.629,7.803,25.611,7.738,25.611,7.667C25.611,7.428,25.774,7.235,25.976,7.235C26.177,7.235,26.34,7.428,26.34,7.667C26.34,7.738,26.322,7.803,26.296,7.862C26.296,7.862,26.38,13.35,26.38,13.35C26.38,13.35,25.976,13.863,25.976,13.863C25.976,13.863,25.976,13.863,25.976,13.863M28.77,13.712C28.72,13.609,28.665,13.51,28.604,13.415C28.484,13.026,28.415,12.606,28.415,12.164C28.415,11.938,28.439,11.72,28.472,11.506C28.749,11.106,28.931,10.636,28.984,10.127C29.252,10.306,29.505,10.47,29.681,10.578C29.862,10.69,30.132,10.834,30.424,10.965C30.017,11.55,29.162,12.822,28.77,13.712C28.77,13.712,28.77,13.712,28.77,13.712M13.832,9.803C13.846,9.731,13.839,9.646,13.8,9.536C12.912,7.09,8.607,5.898,8.402,6.023C8.398,6.02,8.394,6.017,8.39,6.014C8.39,6.014,8.122,5.455,8.122,5.455C8.122,5.455,7.032,5.552,7.032,5.552C7.032,5.552,7.032,5.557,7.032,5.557C7.001,5.556,6.97,5.552,6.938,5.552C6.904,5.552,6.87,5.556,6.836,5.557C6.836,5.557,6.836,5.552,6.836,5.552C6.836,5.552,5.746,5.455,5.746,5.455C5.746,5.455,5.474,6.022,5.474,6.022C5.474,6.022,5.474,6.022,5.474,6.022C5.253,5.903,0.963,7.095,0.078,9.536C0.038,9.646,0.032,9.731,0.045,9.803C-0.03,10.034,-0.014,10.294,0.115,10.522C0.115,10.522,2.745,15.067,3.483,14.649C3.542,14.616,3.578,14.554,3.598,14.471C3.629,14.544,3.665,14.613,3.7,14.683C3.718,15.586,3.694,15.972,3.694,15.972C3.694,15.972,3.694,15.972,3.694,15.972C3.451,17.481,3.24,21.196,3.89,30.261C3.89,30.261,3.953,30.299,4.059,30.35C4.059,30.35,4.059,30.681,4.059,30.681C4.059,31.332,4.507,31.859,5.058,31.859C5.058,31.859,5.063,31.859,5.063,31.859C5.615,31.859,6.062,31.332,6.062,30.681C6.062,30.681,6.062,30.359,6.062,30.359C6.118,30.329,6.175,30.298,6.231,30.261C6.358,26.966,6.242,23.345,6.381,20.655C6.388,20.579,6.395,20.507,6.4,20.443C6.423,20.185,6.446,19.831,6.468,19.441C6.554,18.573,6.686,17.86,6.887,17.361C7.723,19.431,7.35,25.228,7.543,30.261C7.608,30.304,7.673,30.34,7.738,30.374C7.738,30.374,7.738,30.656,7.738,30.656C7.738,31.307,8.185,31.835,8.736,31.835C8.736,31.835,8.742,31.835,8.742,31.835C9.293,31.835,9.74,31.307,9.74,30.656C9.74,30.656,9.74,30.337,9.74,30.337C9.831,30.293,9.884,30.261,9.884,30.261C10.54,21.116,10.32,17.417,10.074,15.934C10.074,15.934,10.076,15.933,10.076,15.933C10.076,15.933,10.057,15.615,10.066,14.883C10.145,14.75,10.217,14.614,10.279,14.471C10.299,14.553,10.335,14.616,10.394,14.649C11.131,15.067,13.762,10.522,13.762,10.522C13.892,10.294,13.907,10.034,13.832,9.803C13.832,9.803,13.832,9.803,13.832,9.803M3.447,12.045C3.413,12.165,3.385,12.288,3.363,12.412C3.363,12.412,3.35,12.47,3.35,12.47C3.35,12.47,3.354,12.47,3.354,12.47C3.325,12.657,3.305,12.847,3.305,13.042C3.305,13.049,3.306,13.057,3.306,13.065C2.845,11.824,2.01,10.249,1.755,9.778C2.05,9.676,2.321,9.563,2.509,9.472C2.916,9.274,3.691,8.861,4.242,8.554C4.242,8.554,3.447,12.045,3.447,12.045C3.447,12.045,3.447,12.045,3.447,12.045M5.476,6.023C5.476,6.023,5.476,6.023,5.476,6.023C5.476,6.023,5.476,6.023,5.476,6.023C5.476,6.023,5.476,6.023,5.476,6.023C5.476,6.023,5.476,6.023,5.476,6.023M6.939,12.352C6.939,12.352,6.465,11.844,6.465,11.844C6.465,11.844,6.563,6.41,6.563,6.41C6.533,6.351,6.511,6.287,6.511,6.216C6.511,5.98,6.703,5.789,6.939,5.789C7.175,5.789,7.366,5.98,7.366,6.216C7.366,6.287,7.345,6.351,7.315,6.41C7.315,6.41,7.412,11.844,7.412,11.844C7.412,11.844,6.939,12.352,6.939,12.352C6.939,12.352,6.939,12.352,6.939,12.352M10.572,13.065C10.572,13.057,10.573,13.049,10.573,13.042C10.573,12.857,10.555,12.678,10.528,12.501C10.528,12.501,10.533,12.5,10.533,12.5C10.533,12.5,10.519,12.442,10.519,12.442C10.493,12.283,10.46,12.127,10.413,11.976C10.413,11.976,9.635,8.553,9.635,8.553C10.186,8.861,10.961,9.273,11.369,9.472C11.556,9.563,11.827,9.676,12.122,9.778C11.868,10.249,11.032,11.824,10.572,13.065C10.572,13.065,10.572,13.065,10.572,13.065M16.366,31.86C16.366,31.86,16.366,31.86,16.366,31.86C16.014,31.86,15.726,31.572,15.726,31.22C15.726,31.22,15.726,0.639,15.726,0.639C15.726,0.288,16.014,0,16.366,0C16.366,0,16.366,0,16.366,0C16.717,0,17.005,0.288,17.005,0.639C17.005,0.639,17.005,31.22,17.005,31.22C17.005,31.572,16.717,31.86,16.366,31.86C16.366,31.86,16.366,31.86,16.366,31.86M4.416,2.665C4.416,4.607,6.518,5.821,8.2,4.85C8.981,4.399,9.462,3.567,9.462,2.665C9.462,0.723,7.359,-0.49,5.677,0.481C4.897,0.931,4.416,1.764,4.416,2.665M23.158,3.23C23.158,5.399,25.506,6.755,27.385,5.671C28.257,5.167,28.794,4.237,28.794,3.23C28.794,1.061,26.445,-0.295,24.567,0.79C23.695,1.293,23.158,2.223,23.158,3.23"></path>
</svg>
