<svg width="50" height="43.93939393939394" version="1.1"
  xmlns="http://www.w3.org/2000/svg" viewBox="0 0 33 29">
  <path transform="translate(0, 0)" d="M31.98,11.655C31.905,11.129,31.604,10.715,31.191,10.414C31.191,10.414,17.129,0.376,17.129,0.376C16.791,0.15,16.415,0,16.001,0C15.588,0,15.212,0.113,14.873,0.376C14.873,0.376,12.129,2.331,12.129,2.331C12.129,2.331,12.129,1.767,12.129,1.767C12.129,0.94,11.452,0.263,10.625,0.263C10.625,0.263,8.031,0.263,8.031,0.263C7.204,0.263,6.527,0.94,6.527,1.767C6.527,1.767,6.527,6.316,6.527,6.316C6.527,6.316,0.812,10.414,0.812,10.414C0.399,10.715,0.098,11.166,0.023,11.655C-0.053,12.182,0.06,12.67,0.361,13.084C0.737,13.573,1.301,13.911,1.94,13.911C2.354,13.911,2.73,13.798,3.068,13.535C3.068,13.535,3.181,13.46,3.181,13.46C3.181,13.46,3.181,28.236,3.181,28.236C3.181,28.424,3.256,28.574,3.369,28.724C3.482,28.837,3.669,28.912,3.857,28.912C3.857,28.912,12.542,28.912,12.542,28.912C12.542,28.912,19.498,28.912,19.498,28.912C19.498,28.912,28.183,28.912,28.183,28.912C28.371,28.912,28.521,28.837,28.672,28.724C28.785,28.612,28.86,28.424,28.86,28.236C28.86,28.236,28.86,13.46,28.86,13.46C28.86,13.46,28.973,13.535,28.973,13.535C29.311,13.761,29.687,13.911,30.1,13.911C30.74,13.911,31.304,13.61,31.68,13.084C31.943,12.67,32.055,12.144,31.98,11.655C31.98,11.655,31.98,11.655,31.98,11.655M7.88,1.767C7.88,1.654,7.956,1.579,8.068,1.579C8.068,1.579,10.663,1.579,10.663,1.579C10.775,1.579,10.851,1.654,10.851,1.767C10.851,1.767,10.851,3.271,10.851,3.271C10.851,3.271,7.918,5.376,7.918,5.376C7.918,5.376,7.918,1.767,7.918,1.767C7.918,1.767,7.88,1.767,7.88,1.767M18.821,27.596C18.821,27.596,13.182,27.596,13.182,27.596C13.182,27.596,13.182,18.799,13.182,18.799C13.182,18.686,13.257,18.611,13.37,18.611C13.37,18.611,18.633,18.611,18.633,18.611C18.746,18.611,18.821,18.686,18.821,18.799C18.821,18.799,18.821,27.596,18.821,27.596C18.821,27.596,18.821,27.596,18.821,27.596M27.506,27.596C27.506,27.596,20.137,27.596,20.137,27.596C20.137,27.596,20.137,18.799,20.137,18.799C20.137,17.972,19.46,17.295,18.633,17.295C18.633,17.295,13.37,17.295,13.37,17.295C12.542,17.295,11.866,17.972,11.866,18.799C11.866,18.799,11.866,27.596,11.866,27.596C11.866,27.596,4.497,27.596,4.497,27.596C4.497,27.596,4.497,12.52,4.497,12.52C4.497,12.52,16.001,4.324,16.001,4.324C16.001,4.324,27.506,12.52,27.506,12.52C27.506,12.52,27.506,27.596,27.506,27.596C27.506,27.596,27.506,27.596,27.506,27.596M30.552,12.332C30.439,12.482,30.251,12.595,30.063,12.595C29.95,12.595,29.837,12.558,29.724,12.482C29.724,12.482,16.001,2.707,16.001,2.707C16.001,2.707,2.278,12.482,2.278,12.482C2.166,12.558,2.053,12.595,1.94,12.595C1.752,12.595,1.564,12.52,1.451,12.332C1.263,12.069,1.338,11.693,1.602,11.505C1.602,11.505,15.663,1.504,15.663,1.504C15.776,1.429,15.889,1.391,16.001,1.391C16.114,1.391,16.227,1.429,16.34,1.504C16.34,1.504,30.401,11.467,30.401,11.467C30.401,11.467,30.401,11.467,30.401,11.467C30.664,11.693,30.74,12.031,30.552,12.332C30.552,12.332,30.552,12.332,30.552,12.332M14.573,22.596C14.084,22.596,13.67,23.01,13.67,23.498C13.67,23.987,14.084,24.401,14.573,24.401C15.061,24.401,15.475,23.987,15.475,23.498C15.475,23.01,15.061,22.596,14.573,22.596C14.573,22.596,14.573,22.596,14.573,22.596M12.542,11.467C12.542,13.385,14.084,14.926,16.001,14.926C17.919,14.926,19.46,13.385,19.46,11.467C19.46,9.55,17.919,8.008,16.001,8.008C14.084,8.008,12.542,9.55,12.542,11.467C12.542,11.467,12.542,11.467,12.542,11.467M18.332,11.467C18.332,12.746,17.28,13.798,16.001,13.798C14.723,13.798,13.67,12.746,13.67,11.467C13.67,10.189,14.723,9.136,16.001,9.136C17.28,9.099,18.332,10.151,18.332,11.467C18.332,11.467,18.332,11.467,18.332,11.467"></path>
</svg>
