<?xml version="1.0" encoding="iso-8859-1"?>
<svg xmlns="http://www.w3.org/2000/svg" 
	xmlns:xlink="http://www.w3.org/1999/xlink" version="1.1" id="Layer_1" x="0px" y="0px" viewBox="0 0 40 40" style="enable-background:new 0 0 40 40;" xml:space="preserve">
	<g>
		<rect x="2" y="2" style="fill:#fedfdf;" width="36" height="36"/>
	</g>
	<g>
		<polygon style="fill:#c74747;" points="29,18 22,11 29,11  "/>
	</g>
	<line style="fill:none;stroke:#c74747;stroke-width:2;stroke-miterlimit:10;" x1="26.538" y1="13.462" x2="14.601" y2="25.399"/>
	<g>
		<rect x="2.5" y="20.5" style="fill:#ffffff;" width="17" height="17"/>
		<g>
			<path style="fill:#c74747;" d="M19,21v16H3V21H19 M20,20H2v18h18V20L20,20z"/>
		</g>
	</g>
	<path style="fill:#c74747;" d="M28.5,38h-7c-0.275,0-0.5-0.225-0.5-0.5l0,0c0-0.275,0.225-0.5,0.5-0.5h7c0.275,0,0.5,0.225,0.5,0.5  l0,0C29,37.775,28.775,38,28.5,38z"/>
	<path style="fill:#c74747;" d="M28.5,3h-7C21.225,3,21,2.775,21,2.5v0C21,2.225,21.225,2,21.5,2h7C28.775,2,29,2.225,29,2.5v0  C29,2.775,28.775,3,28.5,3z"/>
	<path style="fill:#c74747;" d="M18.5,3h-7C11.225,3,11,2.775,11,2.5v0C11,2.225,11.225,2,11.5,2h7C18.775,2,19,2.225,19,2.5v0  C19,2.775,18.775,3,18.5,3z"/>
	<path style="fill:#c74747;" d="M38,38h-6.5c-0.275,0-0.5-0.225-0.5-0.5l0,0c0-0.275,0.225-0.5,0.5-0.5H38V38z"/>
	<path style="fill:#c74747;" d="M37,38v-6.5c0-0.275,0.225-0.5,0.5-0.5l0,0c0.275,0,0.5,0.225,0.5,0.5V38H37z"/>
	<path style="fill:#c74747;" d="M38,2v6.5C38,8.775,37.775,9,37.5,9l0,0C37.225,9,37,8.775,37,8.5V2H38z"/>
	<path style="fill:#c74747;" d="M38,3h-6.5C31.225,3,31,2.775,31,2.5v0C31,2.225,31.225,2,31.5,2H38V3z"/>
	<path style="fill:#c74747;" d="M2,2h6.5C8.775,2,9,2.225,9,2.5v0C9,2.775,8.775,3,8.5,3H2V2z"/>
	<path style="fill:#c74747;" d="M3,2v6.5C3,8.775,2.775,9,2.5,9h0C2.225,9,2,8.775,2,8.5V2H3z"/>
	<path style="fill:#c74747;" d="M37.5,29L37.5,29c-0.275,0-0.5-0.225-0.5-0.5v-7c0-0.275,0.225-0.5,0.5-0.5l0,0  c0.275,0,0.5,0.225,0.5,0.5v7C38,28.775,37.775,29,37.5,29z"/>
	<path style="fill:#c74747;" d="M37.5,19L37.5,19c-0.275,0-0.5-0.225-0.5-0.5v-7c0-0.275,0.225-0.5,0.5-0.5l0,0  c0.275,0,0.5,0.225,0.5,0.5v7C38,18.775,37.775,19,37.5,19z"/>
	<path style="fill:#c74747;" d="M2.5,19L2.5,19C2.225,19,2,18.775,2,18.5v-7C2,11.225,2.225,11,2.5,11h0C2.775,11,3,11.225,3,11.5v7  C3,18.775,2.775,19,2.5,19z"/>
</svg>
